# xmcd
# 
# Track frame offsets:
#     150
#     14570
#     53375
#     96380
#     125400
#     144875
#     161970
#     190662
#     227492
# 
# Disc length: 3307
# 
# Revision: 1
# Processed by: cddbd v1.5.2PL0 Copyright (c) Steve Scherf et al.
# Submitted via: BonkEnc v1.0.6
# 
DISCID=6e0ce909
DTITLE=Robert Trowers - Synopsis
DYEAR=0
DGENRE=Jazz
TTITLE0=Synopsis
TTITLE1=Mr. Lucky
TTITLE2=If you could See me now
TTITLE3=Frolic
TTITLE4=Blues for Two
TTITLE5=Lester Leaps in
TTITLE6=Good Bait
TTITLE7=Gee cee
TTITLE8=Rush Hour
EXTD=
EXTT0=
EXTT1=
EXTT2=
EXTT3=
EXTT4=
EXTT5=
EXTT6=
EXTT7=
EXTT8=
PLAYORDER=
